<svg width="227" height="206" viewBox="0 0 227 206" fill="none" xmlns="http://www.w3.org/2000/svg">
<path d="M198 103C198 116.001 195.439 128.874 190.464 140.886C185.489 152.897 178.197 163.811 169.004 173.004C159.811 182.197 148.897 189.489 136.886 194.464C124.874 199.439 112.001 202 99 202L99 148.917C105.03 148.917 111.001 147.729 116.572 145.422C122.143 143.114 127.204 139.732 131.468 135.468C135.732 131.204 139.114 126.143 141.422 120.572C143.729 115.001 144.917 109.03 144.917 103L198 103Z" fill="#961EA9"/>
<g filter="url(#filter0_d_1_34)">
<rect x="117" y="50" width="106" height="53" rx="5" fill="#961EA9"/>
</g>
<g filter="url(#filter1_d_1_34)">
<path d="M99 202C85.9991 202 73.1256 199.439 61.1143 194.464C49.1031 189.489 38.1894 182.197 28.9964 173.004C19.8034 163.811 12.5111 152.897 7.53593 140.886C2.56071 128.874 -5.68286e-07 116.001 0 103C5.68286e-07 89.9991 2.56071 77.1256 7.53593 65.1143C12.5111 53.1031 19.8034 42.1894 28.9964 32.9964C38.1894 23.8034 49.1031 16.5111 61.1143 11.5359C73.1256 6.56071 85.9991 4 99 4L99 57.0831C92.9701 57.0831 86.9993 58.2708 81.4284 60.5783C75.8575 62.8859 70.7956 66.2681 66.5319 70.5319C62.2681 74.7956 58.8859 79.8575 56.5783 85.4284C54.2708 90.9993 53.0831 96.9701 53.0831 103C53.0831 109.03 54.2708 115.001 56.5783 120.572C58.8859 126.143 62.2681 131.204 66.5319 135.468C70.7956 139.732 75.8575 143.114 81.4284 145.422C86.9993 147.729 92.9701 148.917 99 148.917V202Z" fill="#9563D3"/>
</g>
<defs>
<filter id="filter0_d_1_34" x="113" y="50" width="114" height="61" filterUnits="userSpaceOnUse" color-interpolation-filters="sRGB">
<feFlood flood-opacity="0" result="BackgroundImageFix"/>
<feColorMatrix in="SourceAlpha" type="matrix" values="0 0 0 0 0 0 0 0 0 0 0 0 0 0 0 0 0 0 127 0" result="hardAlpha"/>
<feOffset dy="4"/>
<feGaussianBlur stdDeviation="2"/>
<feComposite in2="hardAlpha" operator="out"/>
<feColorMatrix type="matrix" values="0 0 0 0 0 0 0 0 0 0 0 0 0 0 0 0 0 0 0.25 0"/>
<feBlend mode="normal" in2="BackgroundImageFix" result="effect1_dropShadow_1_34"/>
<feBlend mode="normal" in="SourceGraphic" in2="effect1_dropShadow_1_34" result="shape"/>
</filter>
<filter id="filter1_d_1_34" x="0" y="0" width="107" height="206" filterUnits="userSpaceOnUse" color-interpolation-filters="sRGB">
<feFlood flood-opacity="0" result="BackgroundImageFix"/>
<feColorMatrix in="SourceAlpha" type="matrix" values="0 0 0 0 0 0 0 0 0 0 0 0 0 0 0 0 0 0 127 0" result="hardAlpha"/>
<feOffset dx="4"/>
<feGaussianBlur stdDeviation="2"/>
<feComposite in2="hardAlpha" operator="out"/>
<feColorMatrix type="matrix" values="0 0 0 0 0 0 0 0 0 0 0 0 0 0 0 0 0 0 0.25 0"/>
<feBlend mode="normal" in2="BackgroundImageFix" result="effect1_dropShadow_1_34"/>
<feBlend mode="normal" in="SourceGraphic" in2="effect1_dropShadow_1_34" result="shape"/>
</filter>
</defs>
</svg>
